PathFileType	4	(X/Y/Z)	S:\OneDrive - The University of Tokyo\ìåëÂéˆã∆\ÉoÉCÉÅÉJ\ë™íË\hirabayashi_2\Trimmed\Trimmed_BarRL0kg1.trc
DataRate	CameraRate	NumFrames	NumMarkers	Units	OrigDataRate	OrigDataStartFrame	OrigNumFrames
200.00	200.00	       9	12	mm	200.00	168	       234
Frame#	Time	BarR0			BarR50			BarR100			BarR130			BarR180			BarR230			BarL0			BarL50			BarL100			BarL130			BarL180			BarL230			
		X1	Y1	Z1	X2	Y2	Z2	X3	Y3	Z3	X4	Y4	Z4	X5	Y5	Z5	X6	Y6	Z6	X7	Y7	Z7	X8	Y8	Z8	X9	Y9	Z9	X10	Y10	Z10	X11	Y11	Z11	X12	Y12	Z12	

168	0.835	-575.99109	2755.47339	1664.50842	-604.89038	2306.35132	1662.46326	-637.30078	1851.93713	1662.14319	-660.76428	1349.45557	1662.10889	-690.07758	902.84808	1662.90186	-713.77661	454.77643	1664.12512	-1113.92029	2808.32861	1664.65295	-1140.92444	2356.56201	1668.00488	-1171.49744	1906.13269	1668.92285	-1199.12537	1404.04346	1669.09863	-1226.85449	952.72626	1668.40674	-1244.77136	506.54181	1667.62866	
169	0.840	-575.99957	2755.46484	1664.47876	-604.87994	2306.35718	1662.46704	-637.32880	1851.92981	1662.11438	-660.73053	1349.43542	1662.11975	-690.09210	902.85870	1662.89026	-713.77496	454.75629	1664.11963	-1113.90405	2808.35010	1664.64038	-1140.89294	2356.56519	1668.01025	-1171.50696	1906.13000	1668.93152	-1199.12891	1404.02795	1669.08191	-1226.85278	952.73346	1668.40112	-1244.74683	506.50986	1667.63867	
170	0.845	-575.98730	2755.46582	1664.49316	-604.89044	2306.34619	1662.46704	-637.33533	1851.94324	1662.11304	-660.74591	1349.44849	1662.10974	-690.07910	902.83173	1662.89038	-713.78888	454.76709	1664.11792	-1113.91174	2808.31494	1664.62305	-1140.92798	2356.56982	1667.99158	-1171.50854	1906.14368	1668.91187	-1199.12878	1404.03052	1669.08142	-1226.85107	952.71173	1668.40234	-1244.75354	506.50949	1667.61719	
171	0.850	-575.99408	2755.46265	1664.48572	-604.89777	2306.36621	1662.47156	-637.35443	1851.95569	1662.14172	-660.74042	1349.45093	1662.11475	-690.09473	902.82996	1662.88855	-713.78796	454.77347	1664.11755	-1113.90039	2808.35547	1664.62488	-1140.90564	2356.57080	1667.99329	-1171.48169	1906.12537	1668.92493	-1199.12317	1404.03052	1669.07043	-1226.86365	952.72522	1668.41003	-1244.75049	506.48270	1667.61633	
172	0.855	-576.00079	2755.46948	1664.48303	-604.88409	2306.35107	1662.47229	-637.31885	1851.91931	1662.12573	-660.75879	1349.46606	1662.12097	-690.08862	902.85571	1662.89001	-713.79370	454.78595	1664.12268	-1113.92078	2808.35889	1664.63940	-1140.89661	2356.56372	1668.01514	-1171.50745	1906.14148	1668.90674	-1199.12036	1404.05334	1669.08606	-1226.87183	952.73157	1668.39575	-1244.75537	506.52692	1667.62097	
173	0.860	-575.99347	2755.47974	1664.48767	-604.87439	2306.33105	1662.47754	-637.31940	1851.95801	1662.13708	-660.75806	1349.43250	1662.12134	-690.09113	902.82941	1662.90259	-713.78894	454.78177	1664.12280	-1113.90967	2808.32715	1664.64282	-1140.91553	2356.57666	1668.00574	-1171.49780	1906.10596	1668.92822	-1199.13684	1404.07373	1669.10046	-1226.84717	952.72772	1668.41089	-1244.74744	506.49704	1667.63501	
174	0.865	-575.99548	2755.45874	1664.48413	-604.85870	2306.34399	1662.47656	-637.32385	1851.95618	1662.10632	-660.74146	1349.44775	1662.12927	-690.08459	902.82159	1662.90076	-713.78729	454.76608	1664.12756	-1113.94092	2808.32007	1664.63281	-1140.90381	2356.58521	1668.02002	-1171.47156	1906.12329	1668.94214	-1199.12354	1404.04346	1669.10767	-1226.85962	952.72083	1668.40051	-1244.74463	506.48926	1667.62427	
175	0.870	-576.00140	2755.47266	1664.49792	-604.86499	2306.36694	1662.46350	-637.29816	1851.94434	1662.13574	-660.75305	1349.44214	1662.11206	-690.08838	902.85254	1662.89709	-713.78583	454.76471	1664.12476	-1113.93079	2808.33594	1664.63049	-1140.94141	2356.56665	1667.99805	-1171.50891	1906.14746	1668.91846	-1199.12512	1404.03857	1669.08911	-1226.84766	952.74182	1668.39282	-1244.74915	506.51190	1667.62085	
176	0.875	-576.00220	2755.47510	1664.49451	-604.89935	2306.34985	1662.47473	-637.34387	1851.93469	1662.11450	-660.74725	1349.43018	1662.11279	-690.09967	902.81152	1662.88660	-713.78931	454.76331	1664.11902	-1113.92078	2808.36865	1664.62354	-1140.90808	2356.55737	1667.98975	-1171.49976	1906.16089	1668.92505	-1199.11731	1404.00720	1669.08850	-1226.86548	952.72369	1668.40784	-1244.73669	506.50311	1667.62305	
